<svg xmlns="http://www.w3.org/2000/svg" xmlns:xlink="http://www.w3.org/1999/xlink" width="243" height="201" viewBox="0 0 243 201"><defs><clipPath id="b"><rect width="243" height="201"/></clipPath></defs><g id="a" clip-path="url(#b)"><rect width="243" height="201" fill="#fff"/><g transform="translate(-432 -20.538)"><path d="M1164.663-487.817c-15.092,0-17.074,36.26-17.074,36.26s-42.074-45.957-42.074-29.092,3.049,21.081,3.049,21.081l39.025,114.681s1.22,18.973,20.732,20.659,19.513-23.189,19.513-23.189l40.855-112.152s9.909-19.184,3.049-21.081-43.9,29.092-43.9,29.092S1179.755-487.817,1164.663-487.817Z" transform="translate(-615.465 514)" fill="#ce0000"/><path d="M1154.991-487.817c-12.624,0-14.281,30.96-14.281,30.96s-35.194-39.24-35.194-24.84,2.55,18,2.55,18l32.644,97.92s1.02,16.2,17.342,17.64,16.322-19.8,16.322-19.8l34.174-95.76s8.289-16.38,2.55-18-36.724,24.84-36.724,24.84S1167.615-487.817,1154.991-487.817Z" transform="translate(-605.295 528.541)" fill="#ff8954"/><path d="M1057-432.426V-302.02s26.625,21,57.54,6.732a273.684,273.684,0,0,1,61.831-19.415V-420.925s-32.178,12.844-61.831,7.524S1057-432.426,1057-432.426Z" transform="translate(1729.742 -223.616) rotate(180)" fill="#fff" stroke="#000" stroke-linejoin="round" stroke-width="1"/><path d="M1176.371-432.426V-302.02s-26.625,21-57.54,6.732A273.685,273.685,0,0,0,1057-314.7V-420.925s32.178,12.844,61.831,7.524S1176.371-432.426,1176.371-432.426Z" transform="translate(1610.371 -223.616) rotate(180)" fill="#fff" stroke="#000" stroke-linejoin="round" stroke-width="1"/><text transform="translate(466 131)" font-size="56" font-family="YuGothicUI-Regular, Yu Gothic UI"><tspan x="0" y="0">日</tspan><tspan y="0" font-family="SegoeUI, Segoe UI"></tspan><tspan x="0" y="48">本</tspan></text><text transform="translate(575 85)" font-size="77" font-family="YuGothicUI-Regular, Yu Gothic UI"><tspan x="0" y="83">語</tspan></text><text transform="translate(554 210.538)" font-size="17" font-family="YuGothicUI-Regular, Yu Gothic UI"><tspan x="-64.871" y="0">日本語の勉強の本</tspan></text></g></g></svg>