<svg width="128" height="128" viewBox="0 0 128 128" fill="none" xmlns="http://www.w3.org/2000/svg">
<g clip-path="url(#clip0_1_26)">
<rect x="5.5" y="10.5" width="118" height="110" rx="17.5" fill="black" stroke="white"/>
<path d="M74.2259 27.7273V51H71.4986L58.8168 32.7273H58.5895V51H55.7713V27.7273H58.4986L71.2259 46.0455H71.4531V27.7273H74.2259ZM57.4119 78V54.7273H65.5483C67.1695 54.7273 68.5066 55.0076 69.5597 55.5682C70.6127 56.1212 71.3968 56.8674 71.9119 57.8068C72.4271 58.7386 72.6847 59.7727 72.6847 60.9091C72.6847 61.9091 72.5066 62.7348 72.1506 63.3864C71.8021 64.0379 71.34 64.553 70.7642 64.9318C70.196 65.3106 69.5786 65.5909 68.9119 65.7727V66C69.6241 66.0455 70.34 66.2955 71.0597 66.75C71.7794 67.2045 72.3816 67.8561 72.8665 68.7045C73.3513 69.553 73.5938 70.5909 73.5938 71.8182C73.5938 72.9848 73.3286 74.0341 72.7983 74.9659C72.268 75.8977 71.4309 76.6364 70.2869 77.1818C69.143 77.7273 67.6544 78 65.821 78H57.4119ZM60.2301 75.5H65.821C67.6619 75.5 68.9688 75.1439 69.7415 74.4318C70.5218 73.7121 70.9119 72.8409 70.9119 71.8182C70.9119 71.0303 70.7112 70.303 70.3097 69.6364C69.9081 68.9621 69.3362 68.4242 68.5938 68.0227C67.8513 67.6136 66.9725 67.4091 65.9574 67.4091H60.2301V75.5ZM60.2301 64.9545H65.4574C66.3059 64.9545 67.071 64.7879 67.7528 64.4545C68.4422 64.1212 68.9877 63.6515 69.3892 63.0455C69.7983 62.4394 70.0028 61.7273 70.0028 60.9091C70.0028 59.8864 69.6468 59.0189 68.9347 58.3068C68.2225 57.5871 67.0938 57.2273 65.5483 57.2273H60.2301V64.9545ZM55.9744 105V81.7273H58.7926V92.0909H71.2017V81.7273H74.0199V105H71.2017V94.5909H58.7926V105H55.9744Z" fill="white"/>
<path d="M87.724 31.472H103.468V51.536H101.548V33.272H89.572V51.656H87.724V31.472ZM88.972 39.776H102.364V41.552H88.972V39.776ZM88.924 48.296H102.388V50.096H88.924V48.296ZM85.06 59.904H105.988V61.728H85.06V59.904ZM89.836 70.608H101.02V72.432H89.836V70.608ZM94.54 54.864H96.436L96.436 76.92H94.54L94.54 54.864ZM93.964 60.504L95.596 61.032C94.876 62.728 93.996 64.352 92.956 65.904C91.916 67.44 90.764 68.832 89.5 70.08C88.236 71.312 86.916 72.328 85.54 73.128C85.444 72.984 85.316 72.824 85.156 72.648C84.996 72.456 84.836 72.272 84.676 72.096C84.532 71.92 84.388 71.768 84.244 71.64C85.252 71.112 86.228 70.456 87.172 69.672C88.132 68.888 89.036 68.008 89.884 67.032C90.748 66.04 91.524 64.992 92.212 63.888C92.9 62.784 93.484 61.656 93.964 60.504ZM97.012 60.576C97.652 62.096 98.476 63.568 99.484 64.992C100.492 66.4 101.62 67.672 102.868 68.808C104.132 69.928 105.452 70.824 106.828 71.496C106.684 71.624 106.524 71.776 106.348 71.952C106.188 72.128 106.028 72.32 105.868 72.528C105.708 72.72 105.572 72.904 105.46 73.08C104.068 72.296 102.732 71.296 101.452 70.08C100.188 68.848 99.044 67.464 98.02 65.928C96.996 64.392 96.132 62.792 95.428 61.128L97.012 60.576ZM94.996 93.28H105.148V101.824H103.396V94.912H96.7V101.92H94.996V93.28ZM94.348 84.784H104.5V90.664H102.772V86.344H94.348V84.784ZM97.828 81.328L99.58 81.496C99.452 82.472 99.292 83.528 99.1 84.664C98.908 85.784 98.716 86.872 98.524 87.928C98.332 88.984 98.148 89.888 97.972 90.64H96.22C96.364 90.064 96.508 89.392 96.652 88.624C96.796 87.856 96.94 87.048 97.084 86.2C97.228 85.352 97.364 84.512 97.492 83.68C97.62 82.848 97.732 82.064 97.828 81.328ZM93.988 80.728H105.868V82.312H93.988V80.728ZM93.244 89.848H106.636V91.456H93.244V89.848ZM95.788 99.184H104.38V100.816H95.788V99.184ZM85.564 87.232H92.332V88.672H85.564V87.232ZM85.708 80.68H92.308V82.12H85.708V80.68ZM85.564 90.52H92.332V91.936H85.564V90.52ZM84.412 83.896H93.148V85.384H84.412V83.896ZM86.404 93.808H92.428V100.792H86.404V99.328H90.82V95.296H86.404V93.808ZM85.516 93.808H87.1V101.896H85.516V93.808Z" fill="white"/>
<path d="M27.208 31.736H31.72V33.176H26.416L27.208 31.736ZM25.912 37.256V41.408H33.136V37.256H25.912ZM24.304 35.768H34.84V42.896H24.304L24.304 35.768ZM28.744 36.32H30.304V42.128H28.744V36.32ZM26.848 42.488H28.456C28.344 43.832 28.144 45.112 27.856 46.328C27.568 47.528 27.112 48.616 26.488 49.592C25.864 50.568 24.976 51.384 23.824 52.04C23.76 51.896 23.656 51.736 23.512 51.56C23.384 51.4 23.248 51.232 23.104 51.056C22.96 50.896 22.816 50.768 22.672 50.672C23.728 50.128 24.544 49.432 25.12 48.584C25.696 47.736 26.104 46.792 26.344 45.752C26.584 44.712 26.752 43.624 26.848 42.488ZM30.208 42.464H31.888L31.888 48.92C31.888 49.224 31.944 49.456 32.056 49.616C32.184 49.76 32.424 49.864 32.776 49.928C33.144 49.992 33.672 50.024 34.36 50.024C34.568 50.024 34.896 50.024 35.344 50.024C35.808 50.024 36.336 50.024 36.928 50.024C37.536 50.024 38.144 50.024 38.752 50.024C39.36 50.024 39.912 50.024 40.408 50.024C40.92 50.024 41.296 50.024 41.536 50.024C42.08 50.024 42.48 49.96 42.736 49.832C43.008 49.704 43.2 49.456 43.312 49.088C43.424 48.72 43.496 48.168 43.528 47.432C43.736 47.56 43.992 47.68 44.296 47.792C44.6 47.904 44.864 47.984 45.088 48.032C45.008 48.976 44.856 49.696 44.632 50.192C44.424 50.704 44.088 51.056 43.624 51.248C43.16 51.44 42.496 51.536 41.632 51.536C41.52 51.536 41.28 51.536 40.912 51.536C40.544 51.536 40.104 51.536 39.592 51.536C39.08 51.536 38.544 51.536 37.984 51.536C37.44 51.536 36.912 51.536 36.4 51.536C35.904 51.536 35.472 51.536 35.104 51.536C34.752 51.536 34.512 51.536 34.384 51.536C33.296 51.536 32.448 51.464 31.84 51.32C31.232 51.176 30.808 50.912 30.568 50.528C30.328 50.16 30.208 49.632 30.208 48.944L30.208 42.464ZM27.232 29.816L28.912 30.08C28.576 30.896 28.176 31.736 27.712 32.6C27.248 33.464 26.704 34.312 26.08 35.144C25.456 35.976 24.736 36.752 23.92 37.472C23.776 37.296 23.584 37.104 23.344 36.896C23.104 36.688 22.888 36.528 22.696 36.416C23.464 35.776 24.136 35.08 24.712 34.328C25.304 33.56 25.808 32.792 26.224 32.024C26.64 31.24 26.976 30.504 27.232 29.816ZM31.144 31.736H31.48L31.744 31.664L32.824 32.336C32.616 32.848 32.36 33.392 32.056 33.968C31.768 34.528 31.456 35.072 31.12 35.6C30.8 36.128 30.488 36.592 30.184 36.992C30.024 36.88 29.816 36.752 29.56 36.608C29.32 36.464 29.104 36.344 28.912 36.248C29.2 35.88 29.488 35.448 29.776 34.952C30.064 34.456 30.328 33.952 30.568 33.44C30.808 32.928 31 32.472 31.144 32.072V31.736ZM34.84 34.76H43.408V36.488H34.84V34.76ZM42.736 34.76H44.44C44.44 34.76 44.44 34.816 44.44 34.928C44.44 35.024 44.44 35.144 44.44 35.288C44.44 35.416 44.432 35.52 44.416 35.6C44.368 37.568 44.304 39.232 44.224 40.592C44.16 41.952 44.08 43.072 43.984 43.952C43.888 44.832 43.776 45.52 43.648 46.016C43.536 46.496 43.4 46.848 43.24 47.072C43.032 47.328 42.816 47.512 42.592 47.624C42.368 47.736 42.096 47.808 41.776 47.84C41.504 47.888 41.136 47.912 40.672 47.912C40.224 47.912 39.76 47.896 39.28 47.864C39.264 47.608 39.216 47.32 39.136 47C39.056 46.68 38.944 46.4 38.8 46.16C39.28 46.208 39.72 46.24 40.12 46.256C40.52 46.256 40.808 46.256 40.984 46.256C41.16 46.272 41.304 46.256 41.416 46.208C41.528 46.16 41.632 46.064 41.728 45.92C41.904 45.728 42.048 45.264 42.16 44.528C42.288 43.792 42.392 42.672 42.472 41.168C42.568 39.648 42.656 37.632 42.736 35.12V34.76ZM37.864 30.08H39.592C39.56 32.224 39.496 34.224 39.4 36.08C39.32 37.936 39.128 39.64 38.824 41.192C38.52 42.744 38.04 44.128 37.384 45.344C36.744 46.56 35.84 47.6 34.672 48.464C34.608 48.32 34.504 48.168 34.36 48.008C34.232 47.848 34.088 47.696 33.928 47.552C33.768 47.408 33.624 47.296 33.496 47.216C34.552 46.432 35.376 45.48 35.968 44.36C36.56 43.224 36.984 41.936 37.24 40.496C37.496 39.056 37.656 37.464 37.72 35.72C37.8 33.976 37.848 32.096 37.864 30.08ZM35.632 54.768L37.552 55.272C37.2 55.912 36.832 56.584 36.448 57.288C36.064 57.976 35.672 58.64 35.272 59.28C34.888 59.904 34.512 60.464 34.144 60.96L32.656 60.456C33.008 59.944 33.368 59.36 33.736 58.704C34.12 58.032 34.472 57.352 34.792 56.664C35.128 55.96 35.408 55.328 35.632 54.768ZM30.976 59.976C31.968 59.928 33.136 59.872 34.48 59.808C35.84 59.744 37.28 59.672 38.8 59.592C40.32 59.512 41.84 59.432 43.36 59.352L43.336 60.888C41.896 61 40.448 61.104 38.992 61.2C37.536 61.296 36.144 61.384 34.816 61.464C33.488 61.544 32.296 61.624 31.24 61.704L30.976 59.976ZM39.832 57.432L41.296 56.712C41.808 57.192 42.312 57.728 42.808 58.32C43.32 58.896 43.784 59.472 44.2 60.048C44.632 60.608 44.968 61.12 45.208 61.584L43.624 62.424C43.4 61.96 43.08 61.44 42.664 60.864C42.264 60.288 41.816 59.704 41.32 59.112C40.824 58.504 40.328 57.944 39.832 57.432ZM30.64 74.688C31.712 74.64 32.944 74.568 34.336 74.472C35.744 74.376 37.232 74.272 38.8 74.16C40.368 74.032 41.944 73.912 43.528 73.8L43.504 75.432C41.984 75.56 40.464 75.688 38.944 75.816C37.424 75.944 35.968 76.064 34.576 76.176C33.2 76.288 31.968 76.384 30.88 76.464L30.64 74.688ZM40.384 71.616L41.848 70.92C42.328 71.48 42.808 72.088 43.288 72.744C43.768 73.384 44.2 74.024 44.584 74.664C44.984 75.288 45.28 75.856 45.472 76.368L43.912 77.136C43.72 76.624 43.432 76.048 43.048 75.408C42.68 74.768 42.264 74.12 41.8 73.464C41.336 72.792 40.864 72.176 40.384 71.616ZM33.352 65.376V68.784H42.28V65.376H33.352ZM31.696 63.864H44.008V70.32H31.696V63.864ZM28.504 66.192H30.184C30.184 66.192 30.184 66.24 30.184 66.336C30.184 66.432 30.184 66.544 30.184 66.672C30.184 66.784 30.176 66.888 30.16 66.984C30.064 69 29.96 70.64 29.848 71.904C29.752 73.152 29.624 74.104 29.464 74.76C29.32 75.4 29.136 75.856 28.912 76.128C28.704 76.384 28.48 76.56 28.24 76.656C28 76.752 27.696 76.816 27.328 76.848C27.024 76.88 26.6 76.896 26.056 76.896C25.528 76.896 24.968 76.88 24.376 76.848C24.344 76.576 24.28 76.272 24.184 75.936C24.104 75.616 23.984 75.336 23.824 75.096C24.432 75.144 24.992 75.168 25.504 75.168C26.032 75.184 26.4 75.192 26.608 75.192C26.816 75.208 26.984 75.192 27.112 75.144C27.24 75.112 27.352 75.04 27.448 74.928C27.624 74.752 27.776 74.368 27.904 73.776C28.032 73.184 28.144 72.304 28.24 71.136C28.336 69.952 28.424 68.4 28.504 66.48V66.192ZM23.824 61.368H25.456C25.392 62.168 25.312 63.032 25.216 63.96C25.136 64.872 25.048 65.76 24.952 66.624C24.856 67.472 24.76 68.224 24.664 68.88L23.056 68.592C23.168 67.968 23.272 67.24 23.368 66.408C23.48 65.576 23.576 64.72 23.656 63.84C23.736 62.96 23.792 62.136 23.824 61.368ZM24.16 66.192H29.176V67.776H23.968L24.16 66.192ZM36.928 60.888H38.656L38.656 74.904L36.928 74.976V60.888ZM24.304 61.368H28.432V57.72H23.392L23.392 56.088H30.16V63.024H24.304V61.368ZM23.56 84.904H44.488V86.728H23.56L23.56 84.904ZM28.336 95.608H39.52V97.432H28.336V95.608ZM33.04 79.864H34.936V101.92H33.04V79.864ZM32.464 85.504L34.096 86.032C33.376 87.728 32.496 89.352 31.456 90.904C30.416 92.44 29.264 93.832 28 95.08C26.736 96.312 25.416 97.328 24.04 98.128C23.944 97.984 23.816 97.824 23.656 97.648C23.496 97.456 23.336 97.272 23.176 97.096C23.032 96.92 22.888 96.768 22.744 96.64C23.752 96.112 24.728 95.456 25.672 94.672C26.632 93.888 27.536 93.008 28.384 92.032C29.248 91.04 30.024 89.992 30.712 88.888C31.4 87.784 31.984 86.656 32.464 85.504ZM35.512 85.576C36.152 87.096 36.976 88.568 37.984 89.992C38.992 91.4 40.12 92.672 41.368 93.808C42.632 94.928 43.952 95.824 45.328 96.496C45.184 96.624 45.024 96.776 44.848 96.952C44.688 97.128 44.528 97.32 44.368 97.528C44.208 97.72 44.072 97.904 43.96 98.08C42.568 97.296 41.232 96.296 39.952 95.08C38.688 93.848 37.544 92.464 36.52 90.928C35.496 89.392 34.632 87.792 33.928 86.128L35.512 85.576Z" fill="white"/>
</g>
<defs>
<clipPath id="clip0_1_26">
<rect width="128" height="128" fill="white"/>
</clipPath>
</defs>
</svg>
